#!OML:ASF E:\Style4\Style4.ASF
:FULLY-SPECIFIED
:DEGREES
2533
root -0.203953 16.8569 -1.71818 7.87015 10.829 3.64844
lowerback 22.8782 3.58375 -0.72148
upperback 11.9293 4.58089 0.280911
thorax 0.255979 2.29676 -0.294544
lowerneck 6.36061 -3.60983 -4.40745
upperneck -9.71971 -4.98408 3.47243
head -4.13791 -2.47655 2.22977
rclavicle -1.27222e-014 -1.59028e-014
rhumerus 18.8084 13.1498 -79.1764
rradius 121.746
rwrist 21.0477
rhand 21.9828 -3.75765
rfingers 7.12502
rthumb 46.3775 -26.6933
lclavicle -1.27222e-014 -1.59028e-014
lhumerus 27.4306 -19.7118 72.6501
lradius 128.551
lwrist -10.8647
lhand 18.966 37.6012
lfingers 7.12502
lthumb 43.5706 61.6423
rfemur -36.1076 -6.4451 16.6752
rtibia 56.0384
rfoot -25.0685 -17.1648
rtoes -10.4453
lfemur -37.6191 -3.92899 -21.9436
ltibia 51.2563
lfoot -20.126 2.60015
ltoes -11.5783
2534
root -0.203803 16.8621 -1.71752 7.88434 10.8241 3.69941
lowerback 22.9603 3.56475 -0.776373
upperback 11.8749 4.5429 0.237877
thorax 0.155843 2.27641 -0.308584
lowerneck 6.36299 -3.57519 -4.38033
upperneck -9.66207 -4.93487 3.47051
head -4.12067 -2.45358 2.22024
rclavicle -2.54444e-014 -3.65764e-014
rhumerus 18.7578 13.2337 -79.1821
rradius 121.804
rwrist 21.0021
rhand 22.0344 -3.61682
rfingers 7.12502
rthumb 46.4253 -26.5321
lclavicle -2.54444e-014 -3.65764e-014
lhumerus 27.3273 -19.6133 72.6826
lradius 128.504
lwrist -10.9614
lhand 19.203 37.6286
lfingers 7.12502
lthumb 43.7919 61.5887
rfemur -36.0625 -6.43169 16.6149
rtibia 55.9589
rfoot -25.0641 -17.1522
rtoes -10.3427
lfemur -37.5541 -3.90446 -22.0057
ltibia 51.1628
lfoot -20.0888 2.56877
ltoes -11.7459
2535
root -0.204292 16.8673 -1.71686 7.87992 10.8662 3.63859
lowerback 22.8212 3.55608 -0.739827
upperback 11.9708 4.54435 0.302513
thorax 0.326264 2.27738 -0.248023
lowerneck 6.35802 -3.59296 -4.42455
upperneck -9.77204 -4.96668 3.43447
head -4.15749 -2.46485 2.22062
rclavicle 6.52014e-014 -2.94201e-014
rhumerus 18.9051 13.1973 -79.0296
rradius 121.818
rwrist 21.0231
rhand 22.0661 -3.54403
rfingers 7.12502
rthumb 46.4547 -26.4468
lclavicle 6.52014e-014 -2.94201e-014
lhumerus 27.498 -19.4964 72.7631
lradius 128.377
lwrist -11.0535
lhand 19.4313 37.6468
lfingers 7.12502
lthumb 44.005 61.5278
rfemur -35.997 -6.41446 16.6848
rtibia 55.8769
rfoot -25.0547 -17.1911
rtoes -10.3237
lfemur -37.5211 -3.884 -21.9419
ltibia 51.0766
lfoot -20.0277 2.56884
ltoes -11.9493
2536
root -0.204716 16.8707 -1.71821 7.90243 10.9198 3.60445
lowerback 22.9004 3.50652 -0.658584
upperback 11.9257 4.49437 0.284305
thorax 0.245467 2.25653 -0.308582
lowerneck 6.35842 -3.57773 -4.41075
upperneck -9.77253 -4.94867 3.39504
head -4.15976 -2.45443 2.20388
rclavicle -9.93923e-014 5.24792e-014
rhumerus 18.8879 13.2336 -79.0298
rradius 121.834
rwrist 21.0901
rhand 21.9918 -3.63082
rfingers 7.12502
rthumb 46.3858 -26.563
lclavicle -9.93923e-014 5.24792e-014
lhumerus 27.4911 -19.493 72.7251
lradius 128.295
lwrist -11.1243
lhand 19.2956 37.7049
lfingers 7.12502
lthumb 43.8783 61.633
rfemur -35.983 -6.42477 16.7289
rtibia 55.8205
rfoot -25.0222 -17.2312
rtoes -10.2687
lfemur -37.5278 -3.86128 -21.9084
ltibia 50.9966
lfoot -19.9377 2.54444
ltoes -12.008
2537
root -0.204271 16.8747 -1.71875 7.96703 10.9601 3.70027
lowerback 22.9278 3.46715 -0.735506
upperback 11.8908 4.42831 0.261781
thorax 0.19002 2.22085 -0.278054
lowerneck 6.37476 -3.55011 -4.49677
upperneck -9.7568 -4.92075 3.39872
head -4.15689 -2.4377 2.21941
rclavicle 6.2816e-014 -5.80451e-014
rhumerus 18.868 13.3058 -78.9792
rradius 121.859
rwrist 21.11
rhand 21.9546 -3.63226
rfingers 7.12502
rthumb 46.3514 -26.579
lclavicle 6.2816e-014 -5.80451e-014
lhumerus 27.4711 -19.4341 72.7158
lradius 128.255
lwrist -11.2684
lhand 19.1871 37.7251
lfingers 7.12502
lthumb 43.7771 61.6906
rfemur -36.0143 -6.4695 16.6245
rtibia 55.7906
rfoot -25.0221 -17.2141
rtoes -10.3592
lfemur -37.5311 -3.8687 -22.0189
ltibia 50.9184
lfoot -19.8587 2.53361
ltoes -11.9716
2538
root -0.203941 16.8763 -1.71799 8.01191 10.9806 3.80084
lowerback 22.959 3.44083 -0.802574
upperback 11.8513 4.3796 0.202964
thorax 0.131513 2.19556 -0.295773
lowerneck 6.4139 -3.52434 -4.48007
upperneck -9.74725 -4.88467 3.40949
head -4.16315 -2.42117 2.2195
rclavicle -9.54166e-015 2.14687e-014
rhumerus 18.8171 13.3308 -79.0182
rradius 121.843
rwrist 21.138
rhand 21.9201 -3.50402
rfingers 7.12502
rthumb 46.3194 -26.4644
lclavicle -9.54166e-015 2.14687e-014
lhumerus 27.4626 -19.4403 72.6128
lradius 128.216
lwrist -11.2255
lhand 18.764 37.8521
lfingers 7.12502
lthumb 43.382 61.9617
rfemur -36.0326 -6.50363 16.5094
rtibia 55.7813
rfoot -25.0768 -17.1444
rtoes -10.1474
lfemur -37.5124 -3.86364 -22.1342
ltibia 50.8605
lfoot -19.8217 2.48724
ltoes -11.794
2539
root -0.203965 16.8765 -1.71772 8.03365 11.0151 3.79866
lowerback 22.9327 3.39969 -0.72505
upperback 11.8482 4.34112 0.147521
thorax 0.150835 2.18199 -0.388213
lowerneck 6.475 -3.51687 -4.44093
upperneck -9.80287 -4.87048 3.43136
head -4.19638 -2.41634 2.22315
rclavicle 7.71285e-014 -2.38542e-014
rhumerus 18.8453 13.2963 -79.0543
rradius 121.821
rwrist 21.153
rhand 21.9035 -3.45662
rfingers 7.12502
rthumb 46.304 -26.4235
lclavicle 7.71285e-014 -2.38542e-014
lhumerus 27.5325 -19.468 72.4696
lradius 128.169
lwrist -11.1493
lhand 18.425 37.9708
lfingers 7.12502
lthumb 43.0652 62.1937
rfemur -36.0418 -6.5334 16.5169
rtibia 55.7654
rfoot -25.0506 -17.1548
rtoes -10.2207
lfemur -37.518 -3.88197 -22.1249
ltibia 50.8197
lfoot -19.8278 2.39582
ltoes -11.7725
2540
root -0.204946 16.8772 -1.71773 8.04928 11.0477 3.77263
lowerback 22.8751 3.38464 -0.695356
upperback 11.8715 4.32939 0.161746
thorax 0.205325 2.17729 -0.38281
lowerneck 6.47172 -3.51987 -4.46892
upperneck -9.82128 -4.87822 3.42305
head -4.20159 -2.41851 2.22617
rclavicle -4.05521e-014 -1.03368e-014
rhumerus 18.9285 13.2946 -79.0075
rradius 121.789
rwrist 21.176
rhand 21.8493 -3.51521
rfingers 7.12502
rthumb 46.2538 -26.5033
lclavicle -4.05521e-014 -1.03368e-014
lhumerus 27.6059 -19.4339 72.4955
lradius 128.092
lwrist -11.2843
lhand 18.462 37.9138
lfingers 7.12502
lthumb 43.0997 62.1244
rfemur -36.0507 -6.51662 16.5512
rtibia 55.7435
rfoot -24.9554 -17.2515
rtoes -10.4513
lfemur -37.5397 -3.87551 -22.0921
ltibia 50.7997
lfoot -19.8339 2.3474
ltoes -11.7997
2541
root -0.206464 16.879 -1.7174 8.04638 11.0693 3.75126
lowerback 22.6773 3.39959 -0.672111
upperback 12.0021 4.35912 0.196543
thorax 0.444322 2.19329 -0.348293
lowerneck 6.46866 -3.55753 -4.46425
upperneck -9.94487 -4.93083 3.39801
head -4.24359 -2.4423 2.22301
rclavicle -1.51076e-014 2.62396e-014
rhumerus 19.1455 13.212 -78.9104
rradius 121.737
rwrist 21.2083
rhand 21.7819 -3.54607
rfingers 7.12502
rthumb 46.1913 -26.5605
lclavicle -1.51076e-014 2.62396e-014
lhumerus 27.8312 -19.3594 72.5668
lradius 128.004
lwrist -11.4526
lhand 18.7161 37.7443
lfingers 7.12502
lthumb 43.3372 61.87
rfemur -36.0346 -6.48349 16.5795
rtibia 55.726
rfoot -24.8955 -17.3205
rtoes -10.4058
lfemur -37.5424 -3.87431 -22.0626
ltibia 50.7903
lfoot -19.8802 2.39475
ltoes -11.6572
2542
root -0.207055 16.8795 -1.71754 8.05197 11.074 3.75544
lowerback 22.7744 3.3844 -0.653964
upperback 11.9389 4.33985 0.162217
thorax 0.331479 2.18517 -0.399077
lowerneck 6.49521 -3.56266 -4.45616
upperneck -9.89461 -4.93537 3.42501
head -4.23018 -2.44684 2.23039
rclavicle -1.24837e-013 7.15625e-014
rhumerus 19.0788 13.2538 -78.9943
rradius 121.717
rwrist 21.239
rhand 21.7496 -3.56444
rfingers 7.12502
rthumb 46.1613 -26.5915
lclavicle -1.24837e-013 7.15625e-014
lhumerus 27.783 -19.4748 72.5065
lradius 127.963
lwrist -11.3698
lhand 18.2772 37.9468
lfingers 7.12502
lthumb 42.927 62.2185
rfemur -36.0424 -6.46846 16.5765
rtibia 55.729
rfoot -24.8881 -17.3708
rtoes -10.4776
lfemur -37.5469 -3.88296 -22.0584
ltibia 50.7944
lfoot -19.9467 2.41871
ltoes -11.3877
2543
root -0.206762 16.8779 -1.71811 8.0571 11.0884 3.75854
lowerback 22.6892 3.38781 -0.66015
upperback 11.9949 4.3459 0.184515
thorax 0.432434 2.18771 -0.365903
lowerneck 6.51488 -3.57915 -4.51166
upperneck -9.95522 -4.95894 3.47667
head -4.25255 -2.45851 2.26181
rclavicle 1.19271e-014 1.35174e-014
rhumerus 19.1639 13.2249 -78.9686
rradius 121.703
rwrist 21.2801
rhand 21.8624 -3.50583
rfingers 7.12502
rthumb 46.2659 -26.4888
lclavicle 1.19271e-014 1.35174e-014
lhumerus 27.9241 -19.597 72.4599
lradius 127.922
lwrist -11.1469
lhand 17.5492 38.218
lfingers 7.12502
lthumb 42.2456 62.7253
rfemur -36.0575 -6.48878 16.5752
rtibia 55.7496
rfoot -24.9336 -17.3411
rtoes -10.3808
lfemur -37.562 -3.8853 -22.062
ltibia 50.8094
lfoot -19.925 2.40698
ltoes -11.6466
2544
root -0.207056 16.8758 -1.71815 8.06376 11.0816 3.76481
lowerback 22.635 3.38767 -0.67168
upperback 12.0278 4.34494 0.187979
thorax 0.49396 2.18686 -0.351021
lowerneck 6.44601 -3.57578 -4.55714
upperneck -9.90207 -4.95321 3.5087
head -4.21819 -2.45588 2.27652
rclavicle 2.94201e-014 3.97569e-015
rhumerus 19.2455 13.2209 -78.9805
rradius 121.66
rwrist 21.2916
rhand 21.9175 -3.51756
rfingers 7.12502
rthumb 46.317 -26.4789
lclavicle 2.94201e-014 3.97569e-015
lhumerus 28.0007 -19.3388 72.608
lradius 127.899
lwrist -11.3957
lhand 18.4297 37.7609
lfingers 7.12502
lthumb 43.0696 61.9822
rfemur -36.0773 -6.47763 16.5656
rtibia 55.7736
rfoot -25.0135 -17.2595
rtoes -10.2116
lfemur -37.5921 -3.87141 -22.0694
ltibia 50.8344
lfoot -19.8611 2.42701
ltoes -12.074
2545
root -0.206983 16.8749 -1.71577 8.05547 11.071 3.76214
lowerback 22.7035 3.379 -0.702041
upperback 11.9754 4.32603 0.184944
thorax 0.40086 2.17556 -0.339362
lowerneck 6.40933 -3.55286 -4.55489
upperneck -9.79336 -4.92133 3.50339
head -4.17346 -2.44084 2.26805
rclavicle -2.54444e-014 -1.03368e-014
rhumerus 19.191 13.3165 -79.0378
rradius 121.625
rwrist 21.3349
rhand 21.885 -3.58231
rfingers 7.12502
rthumb 46.2868 -26.5564
lclavicle -2.54444e-014 -1.03368e-014
lhumerus 27.9216 -19.3406 72.6145
lradius 127.863
lwrist -11.2645
lhand 18.0601 37.6523
lfingers 7.12502
lthumb 42.7239 61.9951
rfemur -36.0713 -6.48487 16.5682
rtibia 55.7952
rfoot -25.0679 -17.1931
rtoes -10.1117
lfemur -37.5886 -3.86633 -22.0676
ltibia 50.8594
lfoot -19.8819 2.43765
ltoes -12.1176
